<svg width="36" height="35" viewBox="0 0 36 35" fill="none" xmlns="http://www.w3.org/2000/svg">
<path d="M4.28551 12V1.09091H7.16903V3.01562H7.29688C7.52415 2.37642 7.90294 1.87216 8.43324 1.50284C8.96354 1.13352 9.59801 0.948864 10.3366 0.948864C11.0848 0.948864 11.7216 1.13589 12.2472 1.50994C12.7727 1.87926 13.1231 2.38116 13.2983 3.01562H13.4119C13.6345 2.39062 14.0369 1.8911 14.6193 1.51705C15.2064 1.13826 15.9001 0.948864 16.7003 0.948864C17.7183 0.948864 18.5445 1.2732 19.179 1.92188C19.8182 2.56581 20.1378 3.47964 20.1378 4.66335V12H17.1193V5.25994C17.1193 4.65388 16.9583 4.19934 16.6364 3.89631C16.3144 3.59328 15.9119 3.44176 15.429 3.44176C14.8797 3.44176 14.4512 3.61695 14.1435 3.96733C13.8357 4.31297 13.6818 4.76989 13.6818 5.33807V12H10.7486V5.19602C10.7486 4.66098 10.5947 4.23485 10.2869 3.91761C9.9839 3.60038 9.58381 3.44176 9.08665 3.44176C8.75047 3.44176 8.44744 3.52699 8.17756 3.69744C7.91241 3.86316 7.7017 4.09754 7.54545 4.40057C7.3892 4.69886 7.31108 5.04924 7.31108 5.4517V12H4.28551ZM25.6385 12.206C24.9425 12.206 24.3222 12.0852 23.7777 11.8438C23.2332 11.5975 22.8023 11.2353 22.4851 10.7571C22.1726 10.2741 22.0163 9.67282 22.0163 8.95312C22.0163 8.34706 22.1276 7.83807 22.3501 7.42614C22.5727 7.0142 22.8757 6.68277 23.2592 6.43182C23.6428 6.18087 24.0784 5.99148 24.5661 5.86364C25.0585 5.7358 25.5746 5.64583 26.1143 5.59375C26.7488 5.52746 27.2602 5.46591 27.6484 5.40909C28.0367 5.34754 28.3184 5.25758 28.4936 5.1392C28.6688 5.02083 28.7564 4.84564 28.7564 4.61364V4.57102C28.7564 4.12121 28.6143 3.7732 28.3303 3.52699C28.0509 3.28078 27.6532 3.15767 27.1371 3.15767C26.5926 3.15767 26.1593 3.27841 25.8374 3.51989C25.5154 3.75663 25.3023 4.05492 25.1982 4.41477L22.3999 4.1875C22.5419 3.52462 22.8213 2.9517 23.2379 2.46875C23.6546 1.98106 24.192 1.60701 24.8501 1.34659C25.513 1.08144 26.2801 0.948864 27.1513 0.948864C27.7573 0.948864 28.3374 1.01989 28.8913 1.16193C29.45 1.30398 29.9448 1.52415 30.3757 1.82244C30.8113 2.12074 31.1546 2.50426 31.4055 2.97301C31.6565 3.43703 31.782 3.99337 31.782 4.64205V12H28.9126V10.4872H28.8274C28.6522 10.8281 28.4179 11.1288 28.1243 11.3892C27.8307 11.6449 27.478 11.8461 27.0661 11.9929C26.6541 12.1349 26.1783 12.206 25.6385 12.206ZM26.505 10.1179C26.95 10.1179 27.343 10.0303 27.6839 9.85511C28.0249 9.67519 28.2924 9.43371 28.4865 9.13068C28.6806 8.82765 28.7777 8.48437 28.7777 8.10085V6.94318C28.683 7.00473 28.5528 7.06155 28.3871 7.11364C28.2261 7.16098 28.0438 7.20597 27.8402 7.24858C27.6366 7.28646 27.433 7.32197 27.2294 7.35511C27.0258 7.38352 26.8411 7.40956 26.6754 7.43324C26.3203 7.48532 26.0102 7.56818 25.745 7.68182C25.4799 7.79545 25.2739 7.94934 25.1271 8.14347C24.9804 8.33286 24.907 8.5696 24.907 8.85369C24.907 9.26562 25.0561 9.58049 25.3544 9.7983C25.6574 10.0114 26.041 10.1179 26.505 10.1179Z" fill="white"/>
<path d="M5.1804 34.1776C4.3518 34.1776 3.60133 33.9645 2.92898 33.5384C2.26136 33.1075 1.73106 32.4754 1.33807 31.642C0.949811 30.804 0.755682 29.7765 0.755682 28.5597C0.755682 27.3097 0.956913 26.2704 1.35938 25.4418C1.76184 24.6084 2.29688 23.9858 2.96449 23.5739C3.63684 23.1572 4.37311 22.9489 5.1733 22.9489C5.78409 22.9489 6.29309 23.053 6.70028 23.2614C7.11222 23.465 7.44366 23.7206 7.6946 24.0284C7.95028 24.3314 8.14441 24.6297 8.27699 24.9233H8.36932V19.4545H11.3878V34H8.40483V32.2528H8.27699C8.13494 32.5559 7.93371 32.8565 7.6733 33.1548C7.41761 33.4484 7.08381 33.6922 6.67188 33.8864C6.26468 34.0805 5.76752 34.1776 5.1804 34.1776ZM6.1392 31.7699C6.62689 31.7699 7.03883 31.6373 7.375 31.3722C7.71591 31.1023 7.97633 30.7259 8.15625 30.2429C8.34091 29.7599 8.43324 29.1941 8.43324 28.5455C8.43324 27.8968 8.34328 27.3333 8.16335 26.8551C7.98343 26.3769 7.72301 26.0076 7.3821 25.7472C7.04119 25.4867 6.62689 25.3565 6.1392 25.3565C5.64205 25.3565 5.22301 25.4915 4.8821 25.7614C4.54119 26.0312 4.28314 26.4053 4.10795 26.8835C3.93277 27.3617 3.84517 27.9157 3.84517 28.5455C3.84517 29.1799 3.93277 29.741 4.10795 30.2287C4.28788 30.7116 4.54593 31.0904 4.8821 31.3651C5.22301 31.6349 5.64205 31.7699 6.1392 31.7699ZM18.8469 34.2131C17.7248 34.2131 16.7589 33.9858 15.9492 33.5312C15.1443 33.072 14.524 32.4233 14.0884 31.5852C13.6528 30.7424 13.435 29.7457 13.435 28.5952C13.435 27.473 13.6528 26.4882 14.0884 25.6406C14.524 24.7931 15.1372 24.1326 15.9279 23.6591C16.7234 23.1856 17.6561 22.9489 18.7262 22.9489C19.4459 22.9489 20.1159 23.0649 20.7362 23.2969C21.3612 23.5241 21.9057 23.8674 22.3697 24.3267C22.8384 24.786 23.203 25.3636 23.4634 26.0597C23.7238 26.7509 23.854 27.5606 23.854 28.4886V29.3196H14.6424V27.4446H21.006C21.006 27.009 20.9113 26.6231 20.7219 26.2869C20.5326 25.9508 20.2698 25.688 19.9336 25.4986C19.6022 25.3045 19.2163 25.2074 18.7759 25.2074C18.3166 25.2074 17.9094 25.3139 17.5543 25.527C17.204 25.7353 16.9293 26.017 16.7305 26.3722C16.5316 26.7225 16.4298 27.1132 16.4251 27.544V29.3267C16.4251 29.8665 16.5245 30.3329 16.7234 30.7259C16.927 31.1188 17.2134 31.4219 17.5827 31.6349C17.9521 31.848 18.39 31.9545 18.8967 31.9545C19.2328 31.9545 19.5406 31.9072 19.82 31.8125C20.0993 31.7178 20.3384 31.5758 20.5373 31.3864C20.7362 31.197 20.8877 30.965 20.9918 30.6903L23.7901 30.875C23.6481 31.5473 23.3569 32.1345 22.9165 32.6364C22.4809 33.1335 21.9175 33.5218 21.2262 33.8011C20.5397 34.0758 19.7466 34.2131 18.8469 34.2131ZM35.706 23.0909L31.892 34H28.483L24.669 23.0909H27.8651L30.1307 30.8963H30.2443L32.5028 23.0909H35.706Z" fill="#C9C9C9"/>
</svg>
